# xmcd
# Track frame offsets:
# 150
# 16244
# 33567
# 49469
# 59987
# 76032
# 89387
# 106764
# 123932
# 137926
# 149871
# 164112
#
# Disc length: 2351 seconds
# Revision: 0
# Processed by: cddbd v1.5.2PL0 Copyright (c) Steve Scherf et al.
# Submitted via: VisiTrax 2.11.3.279 - For more info visit www.synapsa.com
#
DISCID=b3092d0c
DTITLE=Martina McBride - Everlasting
DYEAR=2014
DGENRE=
TTITLE0=Do Right Woman,Do Right Man
TTITLE1=Suspicious Minds
TTITLE2=If You Don´t Know Me By Now
TTITLE3=Little Bit Of Rain
TTITLE4=Bring It On Home To Me
TTITLE5=Come See About Me
TTITLE6=What Becomes Of The Broken Heart
TTITLE7=I´ve Been Loving You Too Long
TTITLE8=Wild Night
TTITLE9=In The Basement
TTITLE10=My Babe
TTITLE11=To Know Him Is To Love Him
EXTD=
EXTT0=
EXTT1=
EXTT2=
EXTT3=
EXTT4=
EXTT5=
EXTT6=
EXTT7=
EXTT8=
EXTT9=
EXTT10=
EXTT11=
PLAYORDER=
